# MagicaVoxel @ Ephtracy

# group
o 

# material
mtllib carRoad.mtl
usemtl palette

# normals
vn -1 0 0
vn 1 0 0
vn 0 0 1
vn 0 0 -1
vn 0 -1 0
vn 0 1 0

# texcoords
vt 0.962891 0.5
vt 0.974609 0.5
vt 0.986328 0.5

# verts
v -0.4 0 0.4
v -0.4 0 -0.4
v -0.4 0.2 0.4
v -0.4 0.2 -0.4
v 0.4 0 0.4
v 0.4 0 -0.4
v 0.4 0.1 0.4
v 0.4 0.1 -0.4
v 0.4 0.2 0.4
v 0.4 0.2 -0.4
v -0.4 0 0.4
v -0.4 0.2 0.4
v -0.3 0.1 0.4
v -0.3 0.2 0.4
v -0.2 0.1 0.4
v -0.2 0.2 0.4
v -0.1 0.1 0.4
v -0.1 0.2 0.4
v 0 0.1 0.4
v 0 0.2 0.4
v 0.1 0.1 0.4
v 0.1 0.2 0.4
v 0.2 0.1 0.4
v 0.2 0.2 0.4
v 0.3 0.1 0.4
v 0.3 0.2 0.4
v 0.4 0 0.4
v 0.4 0.1 0.4
v 0.4 0.2 0.4
v -0.4 0 -0.4
v -0.4 0.2 -0.4
v -0.3 0.1 -0.4
v -0.3 0.2 -0.4
v -0.2 0.1 -0.4
v -0.2 0.2 -0.4
v -0.1 0.1 -0.4
v -0.1 0.2 -0.4
v 0 0.1 -0.4
v 0 0.2 -0.4
v 0.1 0.1 -0.4
v 0.1 0.2 -0.4
v 0.2 0.1 -0.4
v 0.2 0.2 -0.4
v 0.3 0.1 -0.4
v 0.3 0.2 -0.4
v 0.4 0 -0.4
v 0.4 0.1 -0.4
v 0.4 0.2 -0.4
v -0.4 0 0.4
v 0.4 0 0.4
v -0.4 0 -0.4
v 0.4 0 -0.4
v -0.4 0.2 0.4
v -0.3 0.2 0.4
v -0.2 0.2 0.4
v -0.1 0.2 0.4
v 0 0.2 0.4
v 0.1 0.2 0.4
v 0.2 0.2 0.4
v 0.3 0.2 0.4
v 0.4 0.2 0.4
v 0 0.2 0.3
v 0.1 0.2 0.3
v 0 0.2 0.1
v 0.1 0.2 0.1
v 0 0.2 -0.1
v 0.1 0.2 -0.1
v 0 0.2 -0.3
v 0.1 0.2 -0.3
v -0.4 0.2 -0.4
v -0.3 0.2 -0.4
v -0.2 0.2 -0.4
v -0.1 0.2 -0.4
v 0 0.2 -0.4
v 0.1 0.2 -0.4
v 0.2 0.2 -0.4
v 0.3 0.2 -0.4
v 0.4 0.2 -0.4

# faces
f 3/3/1 2/3/1 1/3/1
f 4/3/1 2/3/1 3/3/1
f 5/3/2 6/3/2 7/3/2
f 7/3/2 6/3/2 8/3/2
f 7/2/2 8/2/2 9/2/2
f 9/2/2 8/2/2 10/2/2
f 13/3/3 12/3/3 11/3/3
f 14/3/3 12/3/3 13/3/3
f 15/3/3 13/3/3 11/3/3
f 15/2/3 14/2/3 13/2/3
f 16/2/3 14/2/3 15/2/3
f 17/3/3 15/3/3 11/3/3
f 17/1/3 16/1/3 15/1/3
f 18/1/3 16/1/3 17/1/3
f 19/3/3 17/3/3 11/3/3
f 19/3/3 18/3/3 17/3/3
f 20/3/3 18/3/3 19/3/3
f 21/3/3 19/3/3 11/3/3
f 21/1/3 20/1/3 19/1/3
f 22/1/3 20/1/3 21/1/3
f 23/3/3 21/3/3 11/3/3
f 23/3/3 22/3/3 21/3/3
f 24/3/3 22/3/3 23/3/3
f 25/3/3 23/3/3 11/3/3
f 25/1/3 24/1/3 23/1/3
f 26/1/3 24/1/3 25/1/3
f 27/3/3 25/3/3 11/3/3
f 28/2/3 26/2/3 25/2/3
f 28/3/3 25/3/3 27/3/3
f 29/2/3 26/2/3 28/2/3
f 30/3/4 31/3/4 32/3/4
f 32/3/4 31/3/4 33/3/4
f 30/3/4 32/3/4 34/3/4
f 32/2/4 33/2/4 34/2/4
f 34/2/4 33/2/4 35/2/4
f 30/3/4 34/3/4 36/3/4
f 34/1/4 35/1/4 36/1/4
f 36/1/4 35/1/4 37/1/4
f 30/3/4 36/3/4 38/3/4
f 36/3/4 37/3/4 38/3/4
f 38/3/4 37/3/4 39/3/4
f 30/3/4 38/3/4 40/3/4
f 38/1/4 39/1/4 40/1/4
f 40/1/4 39/1/4 41/1/4
f 30/3/4 40/3/4 42/3/4
f 40/3/4 41/3/4 42/3/4
f 42/3/4 41/3/4 43/3/4
f 30/3/4 42/3/4 44/3/4
f 42/1/4 43/1/4 44/1/4
f 44/1/4 43/1/4 45/1/4
f 30/3/4 44/3/4 46/3/4
f 44/2/4 45/2/4 47/2/4
f 46/3/4 44/3/4 47/3/4
f 47/2/4 45/2/4 48/2/4
f 51/3/5 50/3/5 49/3/5
f 52/3/5 50/3/5 51/3/5
f 56/3/6 57/3/6 62/3/6
f 57/1/6 58/1/6 62/1/6
f 58/3/6 59/3/6 63/3/6
f 62/1/6 58/1/6 63/1/6
f 56/3/6 62/3/6 64/3/6
f 62/3/6 63/3/6 64/3/6
f 63/3/6 59/3/6 65/3/6
f 64/3/6 63/3/6 65/3/6
f 56/3/6 64/3/6 66/3/6
f 64/1/6 65/1/6 66/1/6
f 65/3/6 59/3/6 67/3/6
f 66/1/6 65/1/6 67/1/6
f 56/3/6 66/3/6 68/3/6
f 66/3/6 67/3/6 68/3/6
f 67/3/6 59/3/6 69/3/6
f 68/3/6 67/3/6 69/3/6
f 53/3/6 54/3/6 70/3/6
f 54/2/6 55/2/6 71/2/6
f 70/3/6 54/3/6 71/3/6
f 55/1/6 56/1/6 72/1/6
f 71/2/6 55/2/6 72/2/6
f 56/3/6 68/3/6 73/3/6
f 72/1/6 56/1/6 73/1/6
f 68/1/6 69/1/6 74/1/6
f 73/3/6 68/3/6 74/3/6
f 69/3/6 59/3/6 75/3/6
f 74/1/6 69/1/6 75/1/6
f 59/1/6 60/1/6 76/1/6
f 75/3/6 59/3/6 76/3/6
f 60/2/6 61/2/6 77/2/6
f 76/1/6 60/1/6 77/1/6
f 77/2/6 61/2/6 78/2/6
