# MagicaVoxel @ Ephtracy

# group
o 

# material
mtllib convenienceStore.mtl
usemtl palette

# normals
vn -1 0 0
vn 1 0 0
vn 0 0 1
vn 0 0 -1
vn 0 -1 0
vn 0 1 0

# texcoords
vt 0.150391 0.5
vt 0.423828 0.5
vt 0.884766 0.5
vt 0.962891 0.5
vt 0.978516 0.5
vt 0.982422 0.5
vt 0.990234 0.5

# verts
v -0.3 0.2 0.2
v -0.3 0.2 -0.3
v -0.3 0.3 0.1
v -0.3 0.3 -0.2
v -0.3 0.4 0.2
v -0.3 0.4 0.1
v -0.3 0.4 -0.2
v -0.3 0.4 -0.3
v -0.3 0.5 0.2
v -0.3 0.5 -0.3
v -0.1 0.3 -0.3
v -0.1 0.3 -0.4
v -0.1 0.4 -0.3
v -0.1 0.4 -0.4
v 0.1 0.2 0.3
v 0.1 0.2 0.2
v 0.1 0.3 0.3
v 0.1 0.3 0.2
v 0.2 0.2 0.1
v 0.2 0.2 -0.2
v 0.2 0.3 0.1
v 0.2 0.3 -0.2
v 0.2 0.4 0.1
v 0.2 0.4 -0.2
v -0.2 0.2 0.1
v -0.2 0.2 -0.2
v -0.2 0.3 0.1
v -0.2 0.3 -0.2
v -0.2 0.4 0.1
v -0.2 0.4 -0.2
v 0.1 0.3 -0.3
v 0.1 0.3 -0.4
v 0.1 0.4 -0.3
v 0.1 0.4 -0.4
v 0.3 0.2 0.3
v 0.3 0.2 0.2
v 0.3 0.2 -0.3
v 0.3 0.3 0.3
v 0.3 0.3 0.2
v 0.3 0.3 0.1
v 0.3 0.3 -0.2
v 0.3 0.4 0.2
v 0.3 0.4 0.1
v 0.3 0.4 -0.2
v 0.3 0.4 -0.3
v 0.3 0.5 0.2
v 0.3 0.5 -0.3
v 0.1 0.2 0.3
v 0.1 0.3 0.3
v 0.3 0.2 0.3
v 0.3 0.3 0.3
v -0.3 0.2 0.2
v -0.3 0.4 0.2
v -0.3 0.5 0.2
v -0.2 0.2 0.2
v -0.2 0.3 0.2
v -0.1 0.2 0.2
v -0.1 0.3 0.2
v 0.1 0.2 0.2
v 0.1 0.3 0.2
v 0.3 0.3 0.2
v 0.3 0.4 0.2
v 0.3 0.5 0.2
v -0.2 0.2 -0.2
v -0.2 0.3 -0.2
v -0.2 0.4 -0.2
v -0.1 0.2 -0.2
v -0.1 0.3 -0.2
v 0.1 0.2 -0.2
v 0.1 0.3 -0.2
v 0.2 0.2 -0.2
v 0.2 0.3 -0.2
v 0.2 0.4 -0.2
v -0.2 0.2 0.1
v -0.2 0.3 0.1
v -0.2 0.4 0.1
v -0.1 0.2 0.1
v -0.1 0.3 0.1
v 0.2 0.2 0.1
v 0.2 0.3 0.1
v 0.2 0.4 0.1
v -0.3 0.2 -0.3
v -0.3 0.4 -0.3
v -0.3 0.5 -0.3
v -0.2 0.4 -0.3
v -0.2 0.5 -0.3
v -0.1 0.2 -0.3
v -0.1 0.3 -0.3
v -0.1 0.4 -0.3
v 0.1 0.2 -0.3
v 0.1 0.3 -0.3
v 0.1 0.4 -0.3
v 0.2 0.4 -0.3
v 0.2 0.5 -0.3
v 0.3 0.2 -0.3
v 0.3 0.4 -0.3
v 0.3 0.5 -0.3
v -0.1 0.3 -0.4
v -0.1 0.4 -0.4
v 0.1 0.3 -0.4
v 0.1 0.4 -0.4
v 0.1 0.2 0.3
v 0.3 0.2 0.3
v -0.3 0.2 0.2
v -0.2 0.2 0.2
v -0.1 0.2 0.2
v 0.1 0.2 0.2
v 0.3 0.2 0.2
v -0.2 0.2 0.1
v -0.1 0.2 0.1
v 0.2 0.2 0.1
v -0.2 0.2 -0.2
v -0.1 0.2 -0.2
v 0.1 0.2 -0.2
v 0.2 0.2 -0.2
v -0.3 0.2 -0.3
v -0.1 0.2 -0.3
v 0.1 0.2 -0.3
v 0.3 0.2 -0.3
v -0.1 0.3 -0.3
v 0.1 0.3 -0.3
v -0.1 0.3 -0.4
v 0.1 0.3 -0.4
v -0.2 0.4 0.1
v 0.2 0.4 0.1
v -0.2 0.4 -0.2
v 0.2 0.4 -0.2
v 0.1 0.3 0.3
v 0.3 0.3 0.3
v 0.1 0.3 0.2
v 0.3 0.3 0.2
v -0.1 0.4 -0.3
v 0.1 0.4 -0.3
v -0.1 0.4 -0.4
v 0.1 0.4 -0.4
v -0.3 0.5 0.2
v 0.3 0.5 0.2
v -0.2 0.5 -0.2
v 0.2 0.5 -0.2
v -0.3 0.5 -0.3
v -0.2 0.5 -0.3
v 0.2 0.5 -0.3
v 0.3 0.5 -0.3

# faces
f 3/1/1 2/1/1 1/1/1
f 4/1/1 2/1/1 3/1/1
f 5/1/1 3/1/1 1/1/1
f 6/2/1 4/2/1 3/2/1
f 6/1/1 3/1/1 5/1/1
f 7/1/1 2/1/1 4/1/1
f 7/2/1 4/2/1 6/2/1
f 8/1/1 2/1/1 7/1/1
f 9/5/1 6/5/1 5/5/1
f 9/5/1 7/5/1 6/5/1
f 9/5/1 8/5/1 7/5/1
f 10/5/1 8/5/1 9/5/1
f 13/5/1 12/5/1 11/5/1
f 14/5/1 12/5/1 13/5/1
f 17/7/1 16/7/1 15/7/1
f 18/7/1 16/7/1 17/7/1
f 21/1/1 20/1/1 19/1/1
f 22/1/1 20/1/1 21/1/1
f 23/2/1 22/2/1 21/2/1
f 24/2/1 22/2/1 23/2/1
f 25/1/2 26/1/2 27/1/2
f 27/1/2 26/1/2 28/1/2
f 27/2/2 28/2/2 29/2/2
f 29/2/2 28/2/2 30/2/2
f 31/5/2 32/5/2 33/5/2
f 33/5/2 32/5/2 34/5/2
f 35/7/2 36/7/2 38/7/2
f 36/1/2 37/1/2 39/1/2
f 38/7/2 36/7/2 39/7/2
f 39/1/2 37/1/2 40/1/2
f 40/1/2 37/1/2 41/1/2
f 39/1/2 40/1/2 42/1/2
f 40/2/2 41/2/2 43/2/2
f 42/1/2 40/1/2 43/1/2
f 41/1/2 37/1/2 44/1/2
f 43/2/2 41/2/2 44/2/2
f 44/1/2 37/1/2 45/1/2
f 42/5/2 43/5/2 46/5/2
f 43/5/2 44/5/2 46/5/2
f 44/5/2 45/5/2 46/5/2
f 46/5/2 45/5/2 47/5/2
f 50/7/3 49/7/3 48/7/3
f 51/7/3 49/7/3 50/7/3
f 55/1/3 53/1/3 52/1/3
f 56/1/3 53/1/3 55/1/3
f 57/6/3 56/6/3 55/6/3
f 58/1/3 53/1/3 56/1/3
f 58/6/3 56/6/3 57/6/3
f 59/1/3 58/1/3 57/1/3
f 60/1/3 53/1/3 58/1/3
f 60/1/3 58/1/3 59/1/3
f 61/1/3 53/1/3 60/1/3
f 62/5/3 54/5/3 53/5/3
f 62/1/3 53/1/3 61/1/3
f 63/5/3 54/5/3 62/5/3
f 67/1/3 65/1/3 64/1/3
f 67/1/3 66/1/3 65/1/3
f 68/1/3 66/1/3 67/1/3
f 69/4/3 68/4/3 67/4/3
f 70/1/3 66/1/3 68/1/3
f 70/4/3 68/4/3 69/4/3
f 71/1/3 70/1/3 69/1/3
f 72/1/3 66/1/3 70/1/3
f 72/1/3 70/1/3 71/1/3
f 73/1/3 66/1/3 72/1/3
f 74/6/4 75/6/4 77/6/4
f 75/1/4 76/1/4 78/1/4
f 77/6/4 75/6/4 78/6/4
f 77/1/4 78/1/4 79/1/4
f 78/1/4 76/1/4 80/1/4
f 79/1/4 78/1/4 80/1/4
f 80/1/4 76/1/4 81/1/4
f 82/1/4 83/1/4 85/1/4
f 83/5/4 84/5/4 85/5/4
f 85/5/4 84/5/4 86/5/4
f 82/1/4 85/1/4 87/1/4
f 87/1/4 85/1/4 88/1/4
f 85/3/4 86/3/4 89/3/4
f 88/1/4 85/1/4 89/1/4
f 87/4/4 88/4/4 90/4/4
f 90/4/4 88/4/4 91/4/4
f 89/3/4 86/3/4 92/3/4
f 90/1/4 91/1/4 93/1/4
f 91/1/4 92/1/4 93/1/4
f 92/3/4 86/3/4 93/3/4
f 93/3/4 86/3/4 94/3/4
f 90/1/4 93/1/4 95/1/4
f 93/5/4 94/5/4 96/5/4
f 95/1/4 93/1/4 96/1/4
f 96/5/4 94/5/4 97/5/4
f 98/5/4 99/5/4 100/5/4
f 100/5/4 99/5/4 101/5/4
f 107/7/5 103/7/5 102/7/5
f 108/7/5 103/7/5 107/7/5
f 109/6/5 106/6/5 105/6/5
f 109/1/5 105/1/5 104/1/5
f 110/1/5 108/1/5 107/1/5
f 110/6/5 106/6/5 109/6/5
f 110/1/5 107/1/5 106/1/5
f 111/1/5 108/1/5 110/1/5
f 112/1/5 109/1/5 104/1/5
f 115/1/5 108/1/5 111/1/5
f 116/1/5 112/1/5 104/1/5
f 116/1/5 113/1/5 112/1/5
f 117/4/5 114/4/5 113/4/5
f 117/1/5 113/1/5 116/1/5
f 118/1/5 115/1/5 114/1/5
f 118/4/5 114/4/5 117/4/5
f 119/1/5 108/1/5 115/1/5
f 119/1/5 115/1/5 118/1/5
f 122/5/5 121/5/5 120/5/5
f 123/5/5 121/5/5 122/5/5
f 126/5/5 125/5/5 124/5/5
f 127/5/5 125/5/5 126/5/5
f 128/7/6 129/7/6 130/7/6
f 130/7/6 129/7/6 131/7/6
f 132/5/6 133/5/6 134/5/6
f 134/5/6 133/5/6 135/5/6
f 136/5/6 137/5/6 138/5/6
f 138/5/6 137/5/6 139/5/6
f 136/5/6 138/5/6 140/5/6
f 138/3/6 139/3/6 141/3/6
f 140/5/6 138/5/6 141/5/6
f 139/5/6 137/5/6 142/5/6
f 141/3/6 139/3/6 142/3/6
f 142/5/6 137/5/6 143/5/6
