# MagicaVoxel @ Ephtracy

# group
o 

# material
mtllib littleHouse.mtl
usemtl palette

# normals
vn -1 0 0
vn 1 0 0
vn 0 0 1
vn 0 0 -1
vn 0 -1 0
vn 0 1 0

# texcoords
vt 0.166016 0.5
vt 0.248047 0.5
vt 0.279297 0.5
vt 0.330078 0.5
vt 0.365234 0.5
vt 0.373047 0.5
vt 0.462891 0.5
vt 0.490234 0.5
vt 0.513672 0.5

# verts
v -0.4 0 0.4
v -0.4 0 -0.4
v -0.4 0.2 0.4
v -0.4 0.2 -0.4
v -0.4 0.4 0.3
v -0.4 0.4 -0.3
v -0.4 0.5 0.3
v -0.4 0.5 -0.3
v -0.3 0.2 0.3
v -0.3 0.2 -0.3
v -0.3 0.3 0.1
v -0.3 0.3 -0.1
v -0.3 0.4 0.3
v -0.3 0.4 0.1
v -0.3 0.4 -0.1
v -0.3 0.4 -0.3
v -0.3 0.5 0.3
v -0.3 0.5 -0.3
v -0.3 0.6 0.3
v -0.3 0.6 -0.3
v -0.2 0.6 0.3
v -0.2 0.6 -0.3
v -0.2 0.7 0.3
v -0.2 0.7 -0.3
v -0.1 0.7 0.3
v -0.1 0.7 -0.3
v -0.1 0.8 0.3
v -0.1 0.8 -0.3
v 0.1 0.2 0.2
v 0.1 0.2 0
v 0.1 0.3 0.3
v 0.1 0.3 0.2
v 0.1 0.3 0.1
v 0.1 0.3 0
v 0.1 0.3 -0.2
v 0.1 0.3 -0.3
v 0.1 0.4 0.2
v 0.1 0.4 0.1
v 0.1 0.4 -0.2
v 0.1 0.4 -0.3
v 0.1 0.5 0.3
v 0.1 0.5 0.2
v 0.1 0.6 0.2
v 0.1 0.6 -0.2
v 0.1 0.7 0.2
v 0.1 0.7 -0.2
v 0.2 0.2 0
v 0.2 0.2 -0.2
v 0.2 0.3 0.1
v 0.2 0.3 0
v 0.2 0.4 0.2
v 0.2 0.4 0.1
v 0.2 0.5 0.2
v 0.2 0.5 -0.2
v 0.2 0.6 0.2
v 0.2 0.6 -0.2
v -0.2 0.2 0.1
v -0.2 0.2 0
v -0.2 0.2 -0.1
v -0.2 0.3 0.1
v -0.2 0.3 -0.1
v -0.2 0.3 -0.2
v -0.2 0.4 0.2
v -0.2 0.4 0.1
v -0.2 0.4 -0.1
v -0.2 0.5 0.2
v -0.2 0.5 -0.2
v -0.2 0.6 0.2
v -0.2 0.6 -0.2
v -0.1 0.2 -0.1
v -0.1 0.2 -0.2
v -0.1 0.3 0.3
v -0.1 0.3 0.2
v -0.1 0.3 0.1
v -0.1 0.3 -0.1
v -0.1 0.3 -0.2
v -0.1 0.4 0.2
v -0.1 0.4 0.1
v -0.1 0.5 0.3
v -0.1 0.5 0.2
v -0.1 0.6 0.2
v -0.1 0.6 -0.2
v -0.1 0.7 0.2
v -0.1 0.7 -0.2
v 0 0.2 0.2
v 0 0.2 0.1
v 0 0.3 0.2
v 0 0.3 0.1
v 0 0.3 -0.2
v 0 0.3 -0.3
v 0 0.4 -0.2
v 0 0.4 -0.3
v 0.1 0.7 0.3
v 0.1 0.7 -0.3
v 0.1 0.8 0.3
v 0.1 0.8 -0.3
v 0.2 0.6 0.3
v 0.2 0.6 -0.3
v 0.2 0.7 0.3
v 0.2 0.7 -0.3
v 0.3 0.2 0.3
v 0.3 0.2 -0.3
v 0.3 0.4 0.3
v 0.3 0.4 -0.3
v 0.3 0.5 0.3
v 0.3 0.5 -0.3
v 0.3 0.6 0.3
v 0.3 0.6 -0.3
v 0.4 0 0.4
v 0.4 0 -0.4
v 0.4 0.2 0.4
v 0.4 0.2 -0.4
v 0.4 0.4 0.3
v 0.4 0.4 -0.3
v 0.4 0.5 0.3
v 0.4 0.5 -0.3
v -0.4 0 0.4
v -0.4 0.2 0.4
v 0.4 0 0.4
v 0.4 0.2 0.4
v -0.4 0.4 0.3
v -0.4 0.5 0.3
v -0.3 0.2 0.3
v -0.3 0.4 0.3
v -0.3 0.5 0.3
v -0.3 0.6 0.3
v -0.2 0.5 0.3
v -0.2 0.6 0.3
v -0.2 0.7 0.3
v -0.1 0.3 0.3
v -0.1 0.5 0.3
v -0.1 0.6 0.3
v -0.1 0.7 0.3
v -0.1 0.8 0.3
v 0.1 0.3 0.3
v 0.1 0.5 0.3
v 0.1 0.6 0.3
v 0.1 0.7 0.3
v 0.1 0.8 0.3
v 0.2 0.5 0.3
v 0.2 0.6 0.3
v 0.2 0.7 0.3
v 0.3 0.2 0.3
v 0.3 0.4 0.3
v 0.3 0.5 0.3
v 0.3 0.6 0.3
v 0.4 0.4 0.3
v 0.4 0.5 0.3
v -0.3 0.3 -0.1
v -0.3 0.4 -0.1
v -0.2 0.2 -0.1
v -0.2 0.3 -0.1
v -0.2 0.4 -0.1
v -0.1 0.2 -0.1
v -0.1 0.3 -0.1
v -0.2 0.3 -0.2
v -0.2 0.5 -0.2
v -0.2 0.6 -0.2
v -0.1 0.2 -0.2
v -0.1 0.3 -0.2
v -0.1 0.4 -0.2
v -0.1 0.6 -0.2
v -0.1 0.7 -0.2
v 0 0.2 -0.2
v 0 0.3 -0.2
v 0 0.4 -0.2
v 0.1 0.2 -0.2
v 0.1 0.3 -0.2
v 0.1 0.4 -0.2
v 0.1 0.6 -0.2
v 0.1 0.7 -0.2
v 0.2 0.2 -0.2
v 0.2 0.5 -0.2
v 0.2 0.6 -0.2
v -0.2 0.4 0.2
v -0.2 0.5 0.2
v -0.2 0.6 0.2
v -0.1 0.4 0.2
v -0.1 0.5 0.2
v -0.1 0.6 0.2
v -0.1 0.7 0.2
v 0 0.2 0.2
v 0 0.3 0.2
v 0.1 0.2 0.2
v 0.1 0.3 0.2
v 0.1 0.4 0.2
v 0.1 0.5 0.2
v 0.1 0.6 0.2
v 0.1 0.7 0.2
v 0.2 0.4 0.2
v 0.2 0.5 0.2
v 0.2 0.6 0.2
v -0.3 0.3 0.1
v -0.3 0.4 0.1
v -0.2 0.2 0.1
v -0.2 0.3 0.1
v -0.2 0.4 0.1
v -0.1 0.3 0.1
v -0.1 0.4 0.1
v 0 0.2 0.1
v 0 0.3 0.1
v 0.1 0.3 0.1
v 0.1 0.4 0.1
v 0.2 0.3 0.1
v 0.2 0.4 0.1
v 0.1 0.2 0
v 0.1 0.3 0
v 0.2 0.2 0
v 0.2 0.3 0
v -0.4 0.4 -0.3
v -0.4 0.5 -0.3
v -0.3 0.2 -0.3
v -0.3 0.4 -0.3
v -0.3 0.5 -0.3
v -0.3 0.6 -0.3
v -0.2 0.5 -0.3
v -0.2 0.6 -0.3
v -0.2 0.7 -0.3
v -0.1 0.2 -0.3
v -0.1 0.4 -0.3
v -0.1 0.6 -0.3
v -0.1 0.7 -0.3
v -0.1 0.8 -0.3
v 0 0.2 -0.3
v 0 0.3 -0.3
v 0 0.4 -0.3
v 0.1 0.3 -0.3
v 0.1 0.4 -0.3
v 0.1 0.6 -0.3
v 0.1 0.7 -0.3
v 0.1 0.8 -0.3
v 0.2 0.5 -0.3
v 0.2 0.6 -0.3
v 0.2 0.7 -0.3
v 0.3 0.2 -0.3
v 0.3 0.4 -0.3
v 0.3 0.5 -0.3
v 0.3 0.6 -0.3
v 0.4 0.4 -0.3
v 0.4 0.5 -0.3
v -0.4 0 -0.4
v -0.4 0.2 -0.4
v 0.4 0 -0.4
v 0.4 0.2 -0.4
v -0.4 0 0.4
v 0.4 0 0.4
v -0.4 0 -0.4
v 0.4 0 -0.4
v -0.4 0.4 0.3
v -0.3 0.4 0.3
v 0.3 0.4 0.3
v 0.4 0.4 0.3
v -0.3 0.4 0.1
v -0.2 0.4 0.1
v -0.3 0.4 -0.1
v -0.2 0.4 -0.1
v 0 0.4 -0.2
v 0.1 0.4 -0.2
v -0.4 0.4 -0.3
v -0.3 0.4 -0.3
v 0 0.4 -0.3
v 0.1 0.4 -0.3
v 0.3 0.4 -0.3
v 0.4 0.4 -0.3
v -0.1 0.5 0.3
v 0.1 0.5 0.3
v -0.1 0.5 0.2
v 0.1 0.5 0.2
v -0.2 0.6 0.2
v -0.1 0.6 0.2
v 0.1 0.6 0.2
v 0.2 0.6 0.2
v -0.2 0.6 -0.2
v -0.1 0.6 -0.2
v 0.1 0.6 -0.2
v 0.2 0.6 -0.2
v -0.1 0.7 0.2
v 0.1 0.7 0.2
v -0.1 0.7 -0.2
v 0.1 0.7 -0.2
v -0.4 0.2 0.4
v 0.4 0.2 0.4
v -0.3 0.2 0.3
v 0.3 0.2 0.3
v 0 0.2 0.2
v 0.1 0.2 0.2
v -0.2 0.2 0.1
v 0 0.2 0.1
v -0.2 0.2 0
v 0.1 0.2 0
v 0.2 0.2 0
v -0.2 0.2 -0.1
v -0.1 0.2 -0.1
v -0.1 0.2 -0.2
v 0 0.2 -0.2
v 0.1 0.2 -0.2
v 0.2 0.2 -0.2
v -0.3 0.2 -0.3
v -0.1 0.2 -0.3
v 0 0.2 -0.3
v 0.3 0.2 -0.3
v -0.4 0.2 -0.4
v 0.4 0.2 -0.4
v -0.1 0.3 0.3
v 0.1 0.3 0.3
v -0.1 0.3 0.2
v 0 0.3 0.2
v 0.1 0.3 0.2
v -0.3 0.3 0.1
v -0.2 0.3 0.1
v -0.1 0.3 0.1
v 0 0.3 0.1
v 0.1 0.3 0.1
v 0.2 0.3 0.1
v 0.1 0.3 0
v 0.2 0.3 0
v -0.3 0.3 -0.1
v -0.2 0.3 -0.1
v -0.1 0.3 -0.1
v -0.2 0.3 -0.2
v -0.1 0.3 -0.2
v 0 0.3 -0.2
v 0.1 0.3 -0.2
v 0 0.3 -0.3
v 0.1 0.3 -0.3
v -0.2 0.4 0.2
v -0.1 0.4 0.2
v 0.1 0.4 0.2
v 0.2 0.4 0.2
v -0.2 0.4 0.1
v -0.1 0.4 0.1
v 0.1 0.4 0.1
v 0.2 0.4 0.1
v -0.4 0.5 0.3
v -0.3 0.5 0.3
v 0.3 0.5 0.3
v 0.4 0.5 0.3
v -0.4 0.5 -0.3
v -0.3 0.5 -0.3
v 0.3 0.5 -0.3
v 0.4 0.5 -0.3
v -0.3 0.6 0.3
v -0.2 0.6 0.3
v 0.2 0.6 0.3
v 0.3 0.6 0.3
v -0.3 0.6 -0.3
v -0.2 0.6 -0.3
v 0.2 0.6 -0.3
v 0.3 0.6 -0.3
v -0.2 0.7 0.3
v -0.1 0.7 0.3
v 0.1 0.7 0.3
v 0.2 0.7 0.3
v -0.2 0.7 -0.3
v -0.1 0.7 -0.3
v 0.1 0.7 -0.3
v 0.2 0.7 -0.3
v -0.1 0.8 0.3
v 0.1 0.8 0.3
v -0.1 0.8 -0.3
v 0.1 0.8 -0.3

# faces
f 3/7/1 2/7/1 1/7/1
f 4/7/1 2/7/1 3/7/1
f 7/3/1 6/3/1 5/3/1
f 8/3/1 6/3/1 7/3/1
f 11/6/1 10/6/1 9/6/1
f 12/6/1 10/6/1 11/6/1
f 13/6/1 11/6/1 9/6/1
f 14/6/1 11/6/1 13/6/1
f 15/6/1 10/6/1 12/6/1
f 16/6/1 10/6/1 15/6/1
f 19/3/1 18/3/1 17/3/1
f 20/3/1 18/3/1 19/3/1
f 23/3/1 22/3/1 21/3/1
f 24/3/1 22/3/1 23/3/1
f 27/3/1 26/3/1 25/3/1
f 28/3/1 26/3/1 27/3/1
f 32/5/1 30/5/1 29/5/1
f 33/5/1 30/5/1 32/5/1
f 34/5/1 30/5/1 33/5/1
f 37/6/1 32/6/1 31/6/1
f 37/8/1 33/8/1 32/8/1
f 38/8/1 33/8/1 37/8/1
f 39/6/1 36/6/1 35/6/1
f 40/6/1 36/6/1 39/6/1
f 41/6/1 37/6/1 31/6/1
f 42/6/1 37/6/1 41/6/1
f 45/3/1 44/3/1 43/3/1
f 46/3/1 44/3/1 45/3/1
f 50/6/1 48/6/1 47/6/1
f 52/6/1 50/6/1 49/6/1
f 53/6/1 52/6/1 51/6/1
f 54/6/1 48/6/1 50/6/1
f 54/6/1 52/6/1 53/6/1
f 54/6/1 50/6/1 52/6/1
f 55/3/1 54/3/1 53/3/1
f 56/3/1 54/3/1 55/3/1
f 57/6/2 58/6/2 60/6/2
f 58/6/2 59/6/2 60/6/2
f 60/6/2 59/6/2 61/6/2
f 61/6/2 62/6/2 65/6/2
f 63/6/2 64/6/2 66/6/2
f 64/6/2 65/6/2 66/6/2
f 65/6/2 62/6/2 67/6/2
f 66/6/2 65/6/2 67/6/2
f 66/3/2 67/3/2 68/3/2
f 68/3/2 67/3/2 69/3/2
f 70/9/2 71/9/2 75/9/2
f 75/9/2 71/9/2 76/9/2
f 73/1/2 74/1/2 77/1/2
f 72/6/2 73/6/2 77/6/2
f 77/1/2 74/1/2 78/1/2
f 72/6/2 77/6/2 79/6/2
f 79/6/2 77/6/2 80/6/2
f 81/3/2 82/3/2 83/3/2
f 83/3/2 82/3/2 84/3/2
f 85/9/2 86/9/2 87/9/2
f 87/9/2 86/9/2 88/9/2
f 89/5/2 90/5/2 91/5/2
f 91/5/2 90/5/2 92/5/2
f 93/3/2 94/3/2 95/3/2
f 95/3/2 94/3/2 96/3/2
f 97/3/2 98/3/2 99/3/2
f 99/3/2 98/3/2 100/3/2
f 101/6/2 102/6/2 103/6/2
f 103/6/2 102/6/2 104/6/2
f 105/3/2 106/3/2 107/3/2
f 107/3/2 106/3/2 108/3/2
f 109/7/2 110/7/2 111/7/2
f 111/7/2 110/7/2 112/7/2
f 113/3/2 114/3/2 115/3/2
f 115/3/2 114/3/2 116/3/2
f 119/7/3 118/7/3 117/7/3
f 120/7/3 118/7/3 119/7/3
f 124/3/3 122/3/3 121/3/3
f 125/3/3 122/3/3 124/3/3
f 127/6/3 124/6/3 123/6/3
f 127/3/3 126/3/3 125/3/3
f 127/6/3 125/6/3 124/6/3
f 128/3/3 126/3/3 127/3/3
f 130/6/3 127/6/3 123/6/3
f 131/2/3 128/2/3 127/2/3
f 131/6/3 127/6/3 130/6/3
f 132/3/3 129/3/3 128/3/3
f 132/2/3 128/2/3 131/2/3
f 133/3/3 129/3/3 132/3/3
f 135/6/3 130/6/3 123/6/3
f 136/2/3 133/2/3 132/2/3
f 136/2/3 132/2/3 131/2/3
f 137/2/3 133/2/3 136/2/3
f 138/3/3 134/3/3 133/3/3
f 138/2/3 133/2/3 137/2/3
f 139/3/3 134/3/3 138/3/3
f 140/2/3 137/2/3 136/2/3
f 140/6/3 136/6/3 135/6/3
f 141/3/3 138/3/3 137/3/3
f 141/2/3 137/2/3 140/2/3
f 142/3/3 138/3/3 141/3/3
f 143/6/3 135/6/3 123/6/3
f 143/6/3 140/6/3 135/6/3
f 144/6/3 140/6/3 143/6/3
f 145/3/3 141/3/3 140/3/3
f 145/6/3 140/6/3 144/6/3
f 146/3/3 141/3/3 145/3/3
f 147/3/3 145/3/3 144/3/3
f 148/3/3 145/3/3 147/3/3
f 152/6/3 150/6/3 149/6/3
f 153/6/3 150/6/3 152/6/3
f 154/9/3 152/9/3 151/9/3
f 155/9/3 152/9/3 154/9/3
f 160/6/3 157/6/3 156/6/3
f 161/6/3 157/6/3 160/6/3
f 162/2/3 158/2/3 157/2/3
f 164/5/3 160/5/3 159/5/3
f 164/5/3 161/5/3 160/5/3
f 165/5/3 161/5/3 164/5/3
f 166/6/3 157/6/3 161/6/3
f 166/5/3 161/5/3 165/5/3
f 167/6/3 165/6/3 164/6/3
f 168/6/3 165/6/3 167/6/3
f 169/6/3 157/6/3 166/6/3
f 170/2/3 163/2/3 162/2/3
f 170/2/3 162/2/3 157/2/3
f 171/2/3 163/2/3 170/2/3
f 172/6/3 168/6/3 167/6/3
f 172/6/3 169/6/3 168/6/3
f 173/2/3 170/2/3 157/2/3
f 173/6/3 169/6/3 172/6/3
f 173/6/3 157/6/3 169/6/3
f 174/2/3 170/2/3 173/2/3
f 175/6/4 176/6/4 178/6/4
f 176/2/4 177/2/4 179/2/4
f 178/6/4 176/6/4 179/6/4
f 179/2/4 177/2/4 180/2/4
f 182/6/4 183/6/4 184/6/4
f 184/6/4 183/6/4 185/6/4
f 180/2/4 181/2/4 187/2/4
f 179/2/4 180/2/4 187/2/4
f 187/2/4 181/2/4 188/2/4
f 188/2/4 181/2/4 189/2/4
f 186/6/4 187/6/4 190/6/4
f 187/2/4 188/2/4 191/2/4
f 190/6/4 187/6/4 191/6/4
f 191/2/4 188/2/4 192/2/4
f 193/6/4 194/6/4 196/6/4
f 196/6/4 194/6/4 197/6/4
f 195/9/4 196/9/4 198/9/4
f 196/1/4 197/1/4 198/1/4
f 198/1/4 197/1/4 199/1/4
f 195/9/4 198/9/4 200/9/4
f 200/9/4 198/9/4 201/9/4
f 202/8/4 203/8/4 204/8/4
f 204/8/4 203/8/4 205/8/4
f 206/5/4 207/5/4 208/5/4
f 208/5/4 207/5/4 209/5/4
f 210/3/4 211/3/4 213/3/4
f 213/3/4 211/3/4 214/3/4
f 212/6/4 213/6/4 216/6/4
f 214/3/4 215/3/4 216/3/4
f 213/6/4 214/6/4 216/6/4
f 216/3/4 215/3/4 217/3/4
f 212/6/4 216/6/4 219/6/4
f 219/6/4 216/6/4 220/6/4
f 217/3/4 218/3/4 221/3/4
f 216/2/4 217/2/4 221/2/4
f 221/3/4 218/3/4 222/3/4
f 219/5/4 220/5/4 224/5/4
f 224/5/4 220/5/4 225/5/4
f 220/6/4 216/6/4 226/6/4
f 225/5/4 220/5/4 226/5/4
f 224/6/4 225/6/4 227/6/4
f 226/6/4 216/6/4 228/6/4
f 216/2/4 221/2/4 229/2/4
f 221/2/4 222/2/4 229/2/4
f 222/3/4 223/3/4 230/3/4
f 229/2/4 222/2/4 230/2/4
f 230/3/4 223/3/4 231/3/4
f 216/2/4 229/2/4 232/2/4
f 227/6/4 228/6/4 232/6/4
f 228/6/4 216/6/4 232/6/4
f 229/3/4 230/3/4 233/3/4
f 232/2/4 229/2/4 233/2/4
f 233/3/4 230/3/4 234/3/4
f 224/6/4 227/6/4 235/6/4
f 227/6/4 232/6/4 235/6/4
f 235/6/4 232/6/4 236/6/4
f 232/3/4 233/3/4 237/3/4
f 236/6/4 232/6/4 237/6/4
f 237/3/4 233/3/4 238/3/4
f 236/3/4 237/3/4 239/3/4
f 239/3/4 237/3/4 240/3/4
f 241/7/4 242/7/4 243/7/4
f 243/7/4 242/7/4 244/7/4
f 247/7/5 246/7/5 245/7/5
f 248/7/5 246/7/5 247/7/5
f 253/3/5 250/3/5 249/3/5
f 255/3/5 253/3/5 249/3/5
f 255/6/5 254/6/5 253/6/5
f 256/6/5 254/6/5 255/6/5
f 259/3/5 255/3/5 249/3/5
f 260/3/5 255/3/5 259/3/5
f 261/6/5 258/6/5 257/6/5
f 262/6/5 258/6/5 261/6/5
f 263/3/5 252/3/5 251/3/5
f 264/3/5 252/3/5 263/3/5
f 267/2/5 266/2/5 265/2/5
f 268/2/5 266/2/5 267/2/5
f 273/3/5 270/3/5 269/3/5
f 274/3/5 270/3/5 273/3/5
f 275/3/5 272/3/5 271/3/5
f 276/3/5 272/3/5 275/3/5
f 279/3/5 278/3/5 277/3/5
f 280/3/5 278/3/5 279/3/5
f 281/7/6 282/7/6 283/7/6
f 283/7/6 282/7/6 284/7/6
f 285/6/6 286/6/6 288/6/6
f 287/6/6 288/6/6 289/6/6
f 288/6/6 286/6/6 290/6/6
f 289/6/6 288/6/6 290/6/6
f 289/4/6 290/4/6 292/4/6
f 292/4/6 290/4/6 293/4/6
f 293/4/6 290/4/6 294/4/6
f 294/4/6 290/4/6 295/4/6
f 290/6/6 291/6/6 296/6/6
f 295/4/6 290/4/6 296/4/6
f 296/6/6 291/6/6 297/6/6
f 281/7/6 283/7/6 298/7/6
f 284/7/6 282/7/6 301/7/6
f 299/7/6 300/7/6 302/7/6
f 300/7/6 301/7/6 302/7/6
f 298/7/6 299/7/6 302/7/6
f 281/7/6 298/7/6 302/7/6
f 301/7/6 282/7/6 303/7/6
f 302/7/6 301/7/6 303/7/6
f 304/6/6 305/6/6 306/6/6
f 306/6/6 305/6/6 307/6/6
f 307/6/6 305/6/6 308/6/6
f 306/9/6 307/9/6 311/9/6
f 311/9/6 307/9/6 312/9/6
f 313/5/6 314/5/6 315/5/6
f 315/5/6 314/5/6 316/5/6
f 309/6/6 310/6/6 317/6/6
f 317/6/6 310/6/6 318/6/6
f 318/9/6 319/9/6 320/9/6
f 320/9/6 319/9/6 321/9/6
f 322/6/6 323/6/6 324/6/6
f 324/6/6 323/6/6 325/6/6
f 326/1/6 327/1/6 330/1/6
f 330/1/6 327/1/6 331/1/6
f 328/8/6 329/8/6 332/8/6
f 332/8/6 329/8/6 333/8/6
f 334/3/6 335/3/6 338/3/6
f 338/3/6 335/3/6 339/3/6
f 336/3/6 337/3/6 340/3/6
f 340/3/6 337/3/6 341/3/6
f 342/3/6 343/3/6 346/3/6
f 346/3/6 343/3/6 347/3/6
f 344/3/6 345/3/6 348/3/6
f 348/3/6 345/3/6 349/3/6
f 350/3/6 351/3/6 354/3/6
f 354/3/6 351/3/6 355/3/6
f 352/3/6 353/3/6 356/3/6
f 356/3/6 353/3/6 357/3/6
f 358/3/6 359/3/6 360/3/6
f 360/3/6 359/3/6 361/3/6
