# MagicaVoxel @ Ephtracy

# group
o 

# material
mtllib reaverRotate.mtl
usemtl palette

# normals
vn -1 0 0
vn 1 0 0
vn 0 0 1
vn 0 0 -1
vn 0 -1 0
vn 0 1 0

# texcoords
vt 0.462891 0.5
vt 0.513672 0.5
vt 0.681641 0.5

# verts
v -0.4 0 0.4
v -0.4 0 -0.4
v -0.4 0.2 0.4
v -0.4 0.2 -0.4
v 0.1 0.1 0.4
v 0.1 0.1 0.1
v 0.1 0.2 0.4
v 0.1 0.2 0.1
v -0.1 0.1 0.4
v -0.1 0.1 -0.1
v -0.1 0.2 0.4
v -0.1 0.2 -0.1
v 0.4 0 0.4
v 0.4 0 0.2
v 0.4 0 0.1
v 0.4 0 -0.1
v 0.4 0 -0.2
v 0.4 0 -0.4
v 0.4 0.1 0.1
v 0.4 0.1 -0.1
v 0.4 0.2 0.4
v 0.4 0.2 0.2
v 0.4 0.2 0.1
v 0.4 0.2 -0.1
v 0.4 0.2 -0.2
v 0.4 0.2 -0.4
v -0.4 0 0.4
v -0.4 0.2 0.4
v -0.2 0 0.4
v -0.2 0.2 0.4
v -0.1 0 0.4
v -0.1 0.1 0.4
v -0.1 0.2 0.4
v 0.1 0 0.4
v 0.1 0.1 0.4
v 0.1 0.2 0.4
v 0.2 0 0.4
v 0.2 0.2 0.4
v 0.4 0 0.4
v 0.4 0.2 0.4
v -0.1 0.1 -0.1
v -0.1 0.2 -0.1
v 0.4 0.1 -0.1
v 0.4 0.2 -0.1
v 0.1 0.1 0.1
v 0.1 0.2 0.1
v 0.4 0.1 0.1
v 0.4 0.2 0.1
v -0.4 0 -0.4
v -0.4 0.2 -0.4
v 0.4 0 -0.4
v 0.4 0.2 -0.4
v -0.4 0 0.4
v -0.2 0 0.4
v -0.1 0 0.4
v 0.1 0 0.4
v 0.2 0 0.4
v 0.4 0 0.4
v -0.2 0 0.3
v -0.1 0 0.3
v 0.1 0 0.3
v 0.2 0 0.3
v 0.3 0 0.2
v 0.4 0 0.2
v 0.1 0 0.1
v 0.3 0 0.1
v 0.4 0 0.1
v -0.1 0 -0.1
v 0.3 0 -0.1
v 0.4 0 -0.1
v 0.3 0 -0.2
v 0.4 0 -0.2
v -0.4 0 -0.4
v 0.4 0 -0.4
v -0.1 0.1 0.4
v 0.1 0.1 0.4
v 0.1 0.1 0.1
v 0.4 0.1 0.1
v -0.1 0.1 -0.1
v 0.4 0.1 -0.1
v -0.4 0.2 0.4
v -0.2 0.2 0.4
v -0.1 0.2 0.4
v 0.1 0.2 0.4
v 0.2 0.2 0.4
v 0.4 0.2 0.4
v 0.2 0.2 0.2
v 0.4 0.2 0.2
v 0.1 0.2 0.1
v 0.4 0.2 0.1
v -0.1 0.2 -0.1
v 0.4 0.2 -0.1
v -0.2 0.2 -0.2
v 0.4 0.2 -0.2
v -0.4 0.2 -0.4
v 0.4 0.2 -0.4

# faces
f 3/1/1 2/1/1 1/1/1
f 4/1/1 2/1/1 3/1/1
f 7/2/1 6/2/1 5/2/1
f 8/2/1 6/2/1 7/2/1
f 9/2/2 10/2/2 11/2/2
f 11/2/2 10/2/2 12/2/2
f 14/2/2 15/2/2 19/2/2
f 15/3/2 16/3/2 19/3/2
f 16/2/2 17/2/2 20/2/2
f 19/3/2 16/3/2 20/3/2
f 13/1/2 14/1/2 21/1/2
f 14/2/2 19/2/2 22/2/2
f 21/1/2 14/1/2 22/1/2
f 22/2/2 19/2/2 23/2/2
f 20/2/2 17/2/2 24/2/2
f 17/1/2 18/1/2 25/1/2
f 24/2/2 17/2/2 25/2/2
f 25/1/2 18/1/2 26/1/2
f 29/1/3 28/1/3 27/1/3
f 30/1/3 28/1/3 29/1/3
f 31/2/3 30/2/3 29/2/3
f 32/2/3 30/2/3 31/2/3
f 33/2/3 30/2/3 32/2/3
f 34/3/3 32/3/3 31/3/3
f 35/3/3 32/3/3 34/3/3
f 37/2/3 35/2/3 34/2/3
f 37/2/3 36/2/3 35/2/3
f 38/2/3 36/2/3 37/2/3
f 39/1/3 38/1/3 37/1/3
f 40/1/3 38/1/3 39/1/3
f 43/2/3 42/2/3 41/2/3
f 44/2/3 42/2/3 43/2/3
f 45/2/4 46/2/4 47/2/4
f 47/2/4 46/2/4 48/2/4
f 49/1/4 50/1/4 51/1/4
f 51/1/4 50/1/4 52/1/4
f 59/1/5 54/1/5 53/1/5
f 59/2/5 55/2/5 54/2/5
f 60/3/5 56/3/5 55/3/5
f 60/2/5 55/2/5 59/2/5
f 61/2/5 57/2/5 56/2/5
f 61/3/5 56/3/5 60/3/5
f 62/1/5 58/1/5 57/1/5
f 62/2/5 57/2/5 61/2/5
f 63/1/5 62/1/5 61/1/5
f 63/1/5 58/1/5 62/1/5
f 64/1/5 58/1/5 63/1/5
f 65/3/5 61/3/5 60/3/5
f 65/1/5 63/1/5 61/1/5
f 66/2/5 64/2/5 63/2/5
f 66/1/5 63/1/5 65/1/5
f 67/2/5 64/2/5 66/2/5
f 68/1/5 60/1/5 59/1/5
f 68/3/5 65/3/5 60/3/5
f 68/3/5 67/3/5 66/3/5
f 68/3/5 66/3/5 65/3/5
f 69/3/5 67/3/5 68/3/5
f 70/3/5 67/3/5 69/3/5
f 71/1/5 69/1/5 68/1/5
f 71/2/5 70/2/5 69/2/5
f 72/2/5 70/2/5 71/2/5
f 73/1/5 59/1/5 53/1/5
f 73/1/5 68/1/5 59/1/5
f 73/1/5 72/1/5 71/1/5
f 73/1/5 71/1/5 68/1/5
f 74/1/5 72/1/5 73/1/5
f 75/3/6 76/3/6 77/3/6
f 75/3/6 77/3/6 79/3/6
f 77/3/6 78/3/6 79/3/6
f 79/3/6 78/3/6 80/3/6
f 84/2/6 85/2/6 87/2/6
f 85/1/6 86/1/6 87/1/6
f 87/1/6 86/1/6 88/1/6
f 84/2/6 87/2/6 89/2/6
f 87/2/6 88/2/6 89/2/6
f 89/2/6 88/2/6 90/2/6
f 82/2/6 83/2/6 91/2/6
f 81/1/6 82/1/6 93/1/6
f 91/2/6 92/2/6 93/2/6
f 82/2/6 91/2/6 93/2/6
f 93/2/6 92/2/6 94/2/6
f 81/1/6 93/1/6 95/1/6
f 93/1/6 94/1/6 95/1/6
f 95/1/6 94/1/6 96/1/6
