# MagicaVoxel @ Ephtracy

# group
o 

# material
mtllib river.mtl
usemtl palette

# normals
vn -1 0 0
vn 1 0 0
vn 0 0 1
vn 0 0 -1
vn 0 -1 0
vn 0 1 0

# texcoords
vt 0.462891 0.5
vt 0.513672 0.5
vt 0.681641 0.5

# verts
v -0.4 0 0.4
v -0.4 0 -0.4
v -0.4 0.2 0.4
v -0.4 0.2 -0.4
v 0.1 0.1 0.4
v 0.1 0.1 -0.4
v 0.1 0.2 0.4
v 0.1 0.2 -0.4
v -0.1 0.1 0.4
v -0.1 0.1 -0.4
v -0.1 0.2 0.4
v -0.1 0.2 -0.4
v 0.4 0 0.4
v 0.4 0 -0.4
v 0.4 0.2 0.4
v 0.4 0.2 -0.4
v -0.4 0 0.4
v -0.4 0.2 0.4
v -0.2 0 0.4
v -0.2 0.2 0.4
v -0.1 0 0.4
v -0.1 0.1 0.4
v -0.1 0.2 0.4
v 0.1 0 0.4
v 0.1 0.1 0.4
v 0.1 0.2 0.4
v 0.2 0 0.4
v 0.2 0.2 0.4
v 0.4 0 0.4
v 0.4 0.2 0.4
v -0.4 0 -0.4
v -0.4 0.2 -0.4
v -0.2 0 -0.4
v -0.2 0.2 -0.4
v -0.1 0 -0.4
v -0.1 0.1 -0.4
v -0.1 0.2 -0.4
v 0.1 0 -0.4
v 0.1 0.1 -0.4
v 0.1 0.2 -0.4
v 0.2 0 -0.4
v 0.2 0.2 -0.4
v 0.4 0 -0.4
v 0.4 0.2 -0.4
v -0.4 0 0.4
v -0.2 0 0.4
v -0.1 0 0.4
v 0.1 0 0.4
v 0.2 0 0.4
v 0.4 0 0.4
v -0.2 0 0.3
v -0.1 0 0.3
v 0.1 0 0.3
v 0.2 0 0.3
v -0.2 0 -0.3
v -0.1 0 -0.3
v 0.1 0 -0.3
v 0.2 0 -0.3
v -0.4 0 -0.4
v -0.2 0 -0.4
v -0.1 0 -0.4
v 0.1 0 -0.4
v 0.2 0 -0.4
v 0.4 0 -0.4
v -0.1 0.1 0.4
v 0.1 0.1 0.4
v -0.1 0.1 -0.4
v 0.1 0.1 -0.4
v -0.4 0.2 0.4
v -0.2 0.2 0.4
v -0.1 0.2 0.4
v 0.1 0.2 0.4
v 0.2 0.2 0.4
v 0.4 0.2 0.4
v -0.4 0.2 -0.4
v -0.2 0.2 -0.4
v -0.1 0.2 -0.4
v 0.1 0.2 -0.4
v 0.2 0.2 -0.4
v 0.4 0.2 -0.4

# faces
f 3/1/1 2/1/1 1/1/1
f 4/1/1 2/1/1 3/1/1
f 7/2/1 6/2/1 5/2/1
f 8/2/1 6/2/1 7/2/1
f 9/2/2 10/2/2 11/2/2
f 11/2/2 10/2/2 12/2/2
f 13/1/2 14/1/2 15/1/2
f 15/1/2 14/1/2 16/1/2
f 19/1/3 18/1/3 17/1/3
f 20/1/3 18/1/3 19/1/3
f 21/2/3 20/2/3 19/2/3
f 22/2/3 20/2/3 21/2/3
f 23/2/3 20/2/3 22/2/3
f 24/3/3 22/3/3 21/3/3
f 25/3/3 22/3/3 24/3/3
f 27/2/3 25/2/3 24/2/3
f 27/2/3 26/2/3 25/2/3
f 28/2/3 26/2/3 27/2/3
f 29/1/3 28/1/3 27/1/3
f 30/1/3 28/1/3 29/1/3
f 31/1/4 32/1/4 33/1/4
f 33/1/4 32/1/4 34/1/4
f 33/2/4 34/2/4 35/2/4
f 35/2/4 34/2/4 36/2/4
f 36/2/4 34/2/4 37/2/4
f 35/3/4 36/3/4 38/3/4
f 38/3/4 36/3/4 39/3/4
f 38/2/4 39/2/4 41/2/4
f 39/2/4 40/2/4 41/2/4
f 41/2/4 40/2/4 42/2/4
f 41/1/4 42/1/4 43/1/4
f 43/1/4 42/1/4 44/1/4
f 51/1/5 46/1/5 45/1/5
f 51/2/5 47/2/5 46/2/5
f 52/3/5 48/3/5 47/3/5
f 52/2/5 47/2/5 51/2/5
f 53/2/5 49/2/5 48/2/5
f 53/3/5 48/3/5 52/3/5
f 54/1/5 50/1/5 49/1/5
f 54/2/5 49/2/5 53/2/5
f 55/1/5 52/1/5 51/1/5
f 55/1/5 51/1/5 45/1/5
f 56/3/5 53/3/5 52/3/5
f 56/1/5 52/1/5 55/1/5
f 57/1/5 54/1/5 53/1/5
f 57/3/5 53/3/5 56/3/5
f 58/1/5 50/1/5 54/1/5
f 58/1/5 54/1/5 57/1/5
f 59/1/5 55/1/5 45/1/5
f 60/2/5 56/2/5 55/2/5
f 60/1/5 55/1/5 59/1/5
f 61/3/5 57/3/5 56/3/5
f 61/2/5 56/2/5 60/2/5
f 62/2/5 58/2/5 57/2/5
f 62/3/5 57/3/5 61/3/5
f 63/1/5 50/1/5 58/1/5
f 63/2/5 58/2/5 62/2/5
f 64/1/5 50/1/5 63/1/5
f 65/3/6 66/3/6 67/3/6
f 67/3/6 66/3/6 68/3/6
f 69/1/6 70/1/6 75/1/6
f 70/2/6 71/2/6 76/2/6
f 75/1/6 70/1/6 76/1/6
f 76/2/6 71/2/6 77/2/6
f 72/2/6 73/2/6 78/2/6
f 73/1/6 74/1/6 79/1/6
f 78/2/6 73/2/6 79/2/6
f 79/1/6 74/1/6 80/1/6
